<?xml version="1.0" standalone="no"?>
<!DOCTYPE svg PUBLIC "-//W3C//DTD SVG 20010904//EN"
 "http://www.w3.org/TR/2001/REC-SVG-20010904/DTD/svg10.dtd">
<svg version="1.0" xmlns="http://www.w3.org/2000/svg"
 width="512.000000pt" height="512.000000pt" viewBox="0 0 512.000000 512.000000"
 preserveAspectRatio="xMidYMid meet">

<g transform="translate(0.000000,512.000000) scale(0.100000,-0.100000)"
fill="#000000" stroke="none">
<path d="M2505 5096 c-56 -26 -88 -70 -92 -128 -5 -66 19 -114 71 -144 30 -17
61 -22 172 -27 174 -9 315 -30 480 -72 791 -203 1412 -836 1599 -1630 29 -125
40 -199 29 -193 -12 7 -468 277 -879 521 -176 104 -369 219 -430 255 -60 36
-125 74 -143 85 -24 14 -12 -2 40 -54 204 -204 299 -455 284 -754 -10 -216
-68 -386 -187 -547 -55 -74 -145 -161 -217 -209 -26 -18 -48 -33 -50 -34 -1
-1 102 -168 229 -371 128 -203 241 -392 251 -421 40 -116 12 -230 -78 -312
-66 -61 -125 -81 -233 -81 -92 0 -155 26 -219 91 -25 25 -160 230 -320 486
l-277 443 -132 0 -132 0 -3 -402 c-3 -398 -3 -404 -26 -446 -54 -102 -127
-153 -247 -175 l-66 -12 516 -299 c337 -195 512 -302 504 -307 -62 -34 -498
-43 -694 -15 -750 111 -1375 565 -1706 1241 -338 692 -294 1501 117 2165 60
97 136 199 231 307 69 79 78 102 70 170 -9 84 -96 142 -183 123 -45 -10 -100
-62 -207 -195 -291 -361 -467 -766 -538 -1240 -27 -177 -30 -510 -6 -680 81
-575 328 -1074 729 -1475 445 -443 1002 -696 1637 -741 316 -22 674 25 981
129 782 267 1398 913 1626 1706 168 585 123 1229 -126 1789 -184 413 -510 794
-900 1050 -227 149 -567 291 -840 351 -232 51 -577 79 -635 52z"/>
<path d="M1850 4998 c-142 -73 -93 -283 67 -283 58 0 93 20 131 76 19 27 23
43 19 82 -10 113 -119 176 -217 125z"/>
<path d="M1249 4738 c-52 -30 -83 -88 -76 -145 17 -153 220 -187 287 -48 64
133 -83 268 -211 193z"/>
<path d="M2270 3005 l0 -365 204 0 c172 0 214 3 265 19 122 38 216 125 247
228 21 71 18 182 -8 250 -27 72 -102 154 -172 187 -77 36 -151 46 -353 46
l-183 0 0 -365z"/>
</g>
</svg>
